<svg width="198" height="66" viewBox="0 0 198 66" fill="none" xmlns="http://www.w3.org/2000/svg">
<path d="M164.052 0.00175117C167.338 0.0341011 170.607 0.461971 173.791 1.27612C176.115 1.87179 178.218 2.87635 180.248 4.04071C184.421 6.43586 188.018 9.53461 190.748 13.5341C194.276 18.7043 196.586 24.358 196.953 30.6676C197.427 38.843 194.998 46.1406 190.048 52.6328C184.49 59.9199 177.068 64.0087 168.102 65.4761C166.794 65.6837 166.344 65.1669 166.364 63.8925C166.412 61.0158 166.346 58.1371 166.393 55.2625C166.414 54.0317 165.997 53.4838 164.7 53.519C160.385 53.6353 160.964 52.8569 160.92 57.255C160.904 59.5152 160.887 61.7775 160.92 64.0357C160.943 65.2976 160.368 65.6691 159.196 65.4761C154.594 64.7144 150.283 63.2325 146.271 60.7792C140.887 57.4854 136.657 53.0998 133.959 47.4481C130.566 40.3478 128.924 30.6053 131.844 22.93C133.202 19.3705 134.821 15.9833 137.095 12.9053C139.701 9.34325 143.024 6.36666 146.85 4.16732C151.956 1.23253 158.033 -0.0542879 164.052 0.00175117ZM171.686 38.9178H171.698C171.698 45.0821 171.688 51.2463 171.698 57.4106C171.698 59.0129 172.101 59.2433 173.552 58.6559C176.703 57.4265 179.623 55.6721 182.188 53.4671C187.746 48.654 190.835 42.498 191.592 35.352C192.508 26.7033 189.535 19.109 183.516 12.9364C179.181 8.49478 173.71 5.90661 167.473 5.03696C161.661 4.22543 156.194 5.26319 151.008 7.92401C145.368 10.8152 141.132 15.0161 138.43 20.8462C136.134 25.7963 135.364 30.8793 135.929 36.2652C136.298 39.7583 137.56 42.9692 139.15 45.9787C140.468 48.4728 142.208 50.7198 144.293 52.6203C147.255 55.3289 150.52 57.421 154.301 58.7182C155.287 59.0565 155.632 58.6622 155.624 57.7178C155.613 56.4331 155.563 55.1462 155.644 53.8656C155.731 52.5103 155.065 51.8482 153.897 51.3294C151.08 50.0841 148.843 48.0272 146.933 45.6777C144.634 42.8467 143.43 39.5321 142.782 35.9228C141.622 29.4285 143.527 23.8536 147.593 18.9492C150.551 15.4021 154.401 13.1315 158.951 12.0584C160.721 11.6433 160.906 11.6828 160.906 13.5113C160.906 23.1168 160.906 32.7223 160.906 42.3278C160.906 45.026 160.906 45.026 158.208 44.5735C156.093 44.2186 155.619 43.6686 155.621 41.535C155.621 35.3873 155.621 29.2396 155.868 23.094C155.907 22.1249 155.885 21.1544 155.8 20.1883C155.738 19.4805 155.484 18.9679 154.619 19.5822C149.389 23.3057 146.784 29.4575 148.106 35.8356C148.789 39.1274 150.248 42.029 152.656 44.2186C155.929 47.1929 160.026 48.2763 164.447 48.2534C165.941 48.2534 166.404 47.7159 166.391 46.263C166.342 39.6359 166.377 33.0108 166.379 26.3837C166.379 22.0687 166.395 17.7537 166.379 13.4387C166.379 12.2992 166.659 11.6475 167.994 11.9754C172.313 13.036 176.088 14.9932 179.162 18.2892C183.635 23.1002 185.32 28.7664 184.689 35.2503C184.315 38.9245 182.915 42.4194 180.648 45.3353C179.195 47.2157 177.514 48.957 175.459 50.1795C174.494 50.7586 174.042 50.5033 174.062 49.368C174.079 48.3987 174.077 47.4274 174.075 46.4623C174.075 45.7587 174.131 44.9907 174.49 44.3556C175.001 43.4694 175.866 42.882 176.466 42.0725C177.137 41.1695 177.705 40.195 178.162 39.1668C179.259 36.6812 179.718 33.961 179.498 31.2529C179.287 28.5218 178.361 25.8943 176.815 23.6336C175.786 22.1521 174.494 20.8718 173.004 19.8562C172.678 19.6341 172.338 19.2128 171.927 19.4411C171.516 19.6694 171.69 20.1862 171.69 20.5785C171.683 26.6943 171.682 32.8081 171.686 38.9198V38.9178Z" fill="url(#paint0_linear_2_38)"/>
<path d="M68.4033 21.9845C66.8874 19.0079 67.0595 15.9739 68.7519 14.2373C70.2965 12.653 72.2581 11.9911 74.3962 12.0308C76.4373 12.0573 78.4055 12.428 79.9964 13.9748C81.541 15.4708 82.2029 18.6394 81.1769 20.7267C80.6915 21.7086 80.804 22.0242 81.9624 22.0242C84.3896 22.0242 84.3102 22.0661 84.4117 19.6477C84.5419 16.5012 83.4982 13.8291 81.2232 11.7484C80.2425 10.8251 78.9671 10.278 77.6222 10.2038C75.548 10.1398 73.4695 10.1398 71.3976 10.2038C70.5326 10.2303 70.3164 9.98314 70.2943 9.12039C70.1707 4.93902 70.2811 4.74485 74.5551 4.80884C76.5223 4.82853 78.4854 4.99151 80.4289 5.29648C84.2969 5.92313 88.6857 10.5767 89.4911 14.4889C89.9371 16.6262 90.1224 18.8096 90.0427 20.9915C90.0141 21.7704 90.2435 22.0396 91.0445 22.0065C92.5185 21.947 93.9968 22.022 95.4708 21.9823C97.2978 21.9315 97.6663 21.5409 97.6773 19.7537C97.6773 14.7801 97.7126 9.80662 97.6575 4.8331C97.6442 3.64599 97.9311 3.23337 99.202 3.24882C103.291 3.29515 103.291 3.24882 103.291 7.28456V21.3865C103.291 23.8887 102.04 25.4951 99.7735 26.6336C97.1367 27.9575 94.3918 28.1517 91.5366 28.1451C76.3954 28.1142 61.2542 28.123 46.1129 28.1716C44.6081 28.1716 44.2242 27.7501 44.3654 26.349C44.5066 24.9478 43.9241 22.9995 44.65 22.2603C45.376 21.5211 47.3155 22.0109 48.7255 21.9955C50.4753 21.9734 52.225 21.9624 53.9726 21.9955C54.6632 22.0109 54.9104 21.8234 54.9126 21.093C54.9236 16.3755 54.992 15.7245 49.9854 15.7841C47.011 15.8172 47.011 15.7841 47.0132 12.7854C47.0132 10.1376 47.0132 10.0405 49.661 10.1817C52.0066 10.3075 54.3102 10.0008 56.7219 10.9033C59.3146 11.8763 59.8376 13.8093 60.473 15.8812C60.9629 17.4633 60.8327 19.1336 60.7797 20.7709C60.7533 21.6204 60.8746 22.0484 61.8963 22.0087C64.0035 21.9271 66.135 21.9845 68.4033 21.9845ZM74.5132 16.9094C73.1893 16.8918 72.4611 17.6575 72.4082 19.1491C72.3508 20.8304 73.2202 21.98 74.5463 21.9756C75.5878 21.9756 76.5322 20.7643 76.5873 19.3455C76.6425 17.9267 75.7908 16.9359 74.5176 16.9183L74.5132 16.9094Z" fill="white"/>
<path d="M40.3009 13.7408C40.3009 16.5034 40.6076 19.2837 40.3759 22.0418C40.1906 24.2616 38.3901 25.7047 36.5476 26.6755C33.7961 28.1252 30.9077 28.2201 27.9686 28.1363C26.6447 28.0987 26.0754 28.2753 26.1306 29.8551C26.2718 33.9174 26.1813 33.9372 22.3795 35.3891C18.1628 37.0021 13.7564 37.5603 9.36095 36.6799C3.13412 35.4288 -0.530923 30.8128 0.0626332 24.2726C0.153101 23.2973 0.254601 22.3198 0.406852 21.3512C0.473048 20.9386 0.627505 20.2744 1.12177 20.42C2.36184 20.7951 5.97613 20.0118 5.55248 22.2978C5.01629 25.2325 5.65398 27.834 8.18707 29.6543C9.73164 30.7708 11.6513 30.8812 13.4827 31.0246C15.5105 31.1857 17.4699 30.5303 19.4669 30.3097C20.7775 30.164 20.5061 29.3984 20.5348 28.6305C20.5767 27.5471 19.7625 27.9112 19.2661 27.9332C16.3402 28.0701 13.7497 27.1014 11.3226 25.5921C9.75592 24.619 8.36801 20.2148 8.89537 18.0149C9.79784 14.2638 12.9642 10.954 17.4082 11.0952C20.1884 11.1879 22.9245 11.1636 25.5172 12.4191C26.2387 12.7678 26.1791 13.1583 26.1791 13.6702C26.1791 16.0754 26.2144 18.4805 26.1659 20.8856C26.1504 21.7064 26.3358 22.0396 27.2316 22.0021C28.9792 21.9337 30.729 22.0021 32.4788 21.9756C33.8027 21.9624 34.5154 21.5034 34.4867 19.9456C34.3962 14.9169 34.4867 9.88825 34.4337 4.85957C34.4117 2.80529 37.0352 2.93989 38.4496 3.09434C41.2276 3.39443 40.248 5.58111 40.2943 7.6751C40.3362 9.69628 40.3009 11.7197 40.3009 13.7408ZM20.5348 19.2241C20.409 18.5025 20.8724 17.5273 20.3142 16.8101C19.308 15.5061 15.5238 16.2453 14.9413 17.7898C14.0587 20.1552 15.3384 21.9822 17.9157 21.9822C20.5348 21.9933 20.5348 21.9933 20.5348 19.2241Z" fill="white"/>
<path d="M114.028 15.7643C114.028 19.4249 113.992 23.0855 114.052 26.744C114.085 28.7122 109.487 28.8534 108.48 27.8053C107.644 26.9337 108.26 25.0979 108.26 23.6879C108.236 17.4059 108.277 11.1107 108.218 4.83973C108.198 2.68616 112.616 2.21838 113.794 3.6107C114.478 4.42049 114.014 6.2122 114.03 7.56701C114.037 10.3009 114.025 13.0326 114.028 15.7643Z" fill="white"/>
<path d="M21.8455 8.86457C18.1077 8.8425 18.1518 2.90693 21.9426 2.9312C25.8371 2.9643 26.0556 8.88884 21.8455 8.86457Z" fill="white"/>
<path d="M14.95 8.86225C11.2121 8.84018 11.2563 2.89359 15.0471 2.92669C18.935 2.96199 19.1534 8.88652 14.95 8.86225Z" fill="white"/>
<path d="M8.28014 57.4106H6.49095L11.6658 43.3173H13.4275L18.6024 57.4106H16.8132L12.6017 45.5469H12.4916L8.28014 57.4106ZM8.94076 51.9054H16.1526V53.4193H8.94076V51.9054ZM20.7976 57.4106V43.3173H22.5042V55.8967H29.0553V57.4106H20.7976ZM37.148 57.4106V43.3173H38.8546V49.5932H46.3692V43.3173H48.0758V57.4106H46.3692V51.1071H38.8546V57.4106H37.148ZM52.0705 57.4106H50.2813L55.4562 43.3173H57.2178L62.3927 57.4106H60.6035L56.392 45.5469H56.2819L52.0705 57.4106ZM52.7311 51.9054H59.9429V53.4193H52.7311V51.9054ZM68.937 57.4106H64.5879V43.3173H69.1297C70.4968 43.3173 71.6667 43.5994 72.6392 44.1637C73.6118 44.7234 74.3573 45.5286 74.8757 46.5791C75.3941 47.6251 75.6533 48.8775 75.6533 50.3364C75.6533 51.8045 75.3918 53.0684 74.8688 54.1281C74.3458 55.1833 73.5843 55.9953 72.5842 56.5642C71.5841 57.1285 70.3683 57.4106 68.937 57.4106ZM66.2945 55.8967H68.8269C69.9922 55.8967 70.9579 55.6719 71.724 55.2223C72.4901 54.7727 73.0613 54.1327 73.4375 53.3023C73.8137 52.472 74.0018 51.4833 74.0018 50.3364C74.0018 49.1987 73.816 48.2192 73.4444 47.398C73.0728 46.5722 72.5177 45.9392 71.7791 45.4987C71.0404 45.0537 70.1206 44.8312 69.0196 44.8312H66.2945V55.8967ZM78.516 57.4106V43.3173H80.2226V55.8967H86.7738V57.4106H78.516ZM90.8838 57.4106H89.0946L94.2695 43.3173H96.0311L101.206 57.4106H99.4168L95.2053 45.5469H95.0952L90.8838 57.4106ZM91.5444 51.9054H98.7562V53.4193H91.5444V51.9054ZM107.859 53.0064H109.73L111.299 55.0709L111.712 55.6214L114.052 58.7318H112.18L110.639 56.6674L110.253 56.1444L107.859 53.0064ZM114.63 50.3639C114.63 51.8504 114.362 53.1349 113.825 54.2176C113.288 55.3003 112.552 56.1352 111.616 56.7224C110.68 57.3097 109.611 57.6033 108.409 57.6033C107.207 57.6033 106.138 57.3097 105.202 56.7224C104.267 56.1352 103.53 55.3003 102.993 54.2176C102.457 53.1349 102.188 51.8504 102.188 50.3639C102.188 48.8775 102.457 47.593 102.993 46.5103C103.53 45.4276 104.267 44.5927 105.202 44.0055C106.138 43.4182 107.207 43.1246 108.409 43.1246C109.611 43.1246 110.68 43.4182 111.616 44.0055C112.552 44.5927 113.288 45.4276 113.825 46.5103C114.362 47.593 114.63 48.8775 114.63 50.3639ZM112.979 50.3639C112.979 49.1436 112.774 48.1137 112.366 47.2742C111.962 46.4346 111.414 45.7992 110.721 45.368C110.033 44.9368 109.263 44.7211 108.409 44.7211C107.556 44.7211 106.783 44.9368 106.09 45.368C105.402 45.7992 104.854 46.4346 104.445 47.2742C104.042 48.1137 103.84 49.1436 103.84 50.3639C103.84 51.5843 104.042 52.6142 104.445 53.4537C104.854 54.2933 105.402 54.9287 106.09 55.3599C106.783 55.7911 107.556 56.0068 108.409 56.0068C109.263 56.0068 110.033 55.7911 110.721 55.3599C111.414 54.9287 111.962 54.2933 112.366 53.4537C112.774 52.6142 112.979 51.5843 112.979 50.3639Z" fill="white"/>
<defs>
<linearGradient id="paint0_linear_2_38" x1="130.34" y1="32.7618" x2="197.011" y2="32.7618" gradientUnits="userSpaceOnUse">
<stop offset="0.33" stop-color="#C7AD7E"/>
<stop offset="0.62" stop-color="#D2BA8A"/>
<stop offset="1" stop-color="#D1B989"/>
</linearGradient>
</defs>
</svg>
