<svg width="345" height="339" viewBox="0 0 345 339" fill="none" xmlns="http://www.w3.org/2000/svg">
<path opacity="0.1" d="M174.466 0.00905995C191.466 0.176428 208.383 2.39008 224.853 6.60223C236.881 9.68405 247.759 14.8813 258.262 20.9053C279.858 33.297 298.468 49.329 312.59 70.0212C330.846 96.7697 342.799 126.02 344.699 158.664C347.148 200.961 334.583 238.716 308.971 272.305C280.212 310.006 241.81 331.16 195.418 338.752C188.652 339.826 186.322 337.152 186.429 330.559C186.676 315.676 186.333 300.782 186.58 285.91C186.687 279.542 184.528 276.707 177.817 276.89C155.49 277.491 158.487 273.464 158.261 296.218C158.175 307.912 158.089 319.617 158.261 331.3C158.379 337.828 155.404 339.75 149.337 338.752C125.529 334.811 103.224 327.144 82.4658 314.452C54.609 297.41 32.7231 274.721 18.7625 245.481C1.20436 208.746 -7.29011 158.342 7.81954 118.632C14.8428 100.217 23.2191 82.6921 34.989 66.7676C48.4709 48.3389 65.6645 32.939 85.4619 21.5603C111.88 6.37673 143.323 -0.280868 174.466 0.00905995ZM213.964 201.348H214.028C214.028 233.24 213.975 265.132 214.028 297.024C214.028 305.313 216.112 306.505 223.618 303.467C239.922 297.106 255.031 288.029 268.303 276.621C297.062 251.72 313.041 219.871 316.961 182.9C321.697 138.154 306.319 98.8636 275.176 66.9286C252.742 43.9492 224.434 30.5588 192.164 26.0596C162.095 21.861 133.809 27.23 106.972 40.9962C77.7943 55.9543 55.8762 77.6882 41.8941 107.851C30.0169 133.462 26.0327 159.759 28.9537 187.624C30.8653 205.697 37.3945 222.308 45.6205 237.878C52.4414 250.782 61.4447 262.408 72.2316 272.24C87.556 286.253 104.448 297.077 124.015 303.789C129.116 305.539 130.898 303.499 130.855 298.613C130.802 291.966 130.544 285.308 130.963 278.683C131.414 271.671 127.967 268.246 121.921 265.561C107.348 259.118 95.7713 248.477 85.8915 236.321C73.9928 221.675 67.7642 204.526 64.4137 185.853C58.4106 152.253 68.2689 123.411 89.3065 98.0368C104.609 79.6854 124.53 67.938 148.07 62.3864C157.23 60.2388 158.186 60.4428 158.186 69.9031C158.186 119.599 158.186 169.295 158.186 218.99C158.186 232.95 158.186 232.95 144.225 230.609C133.282 228.773 130.834 225.927 130.845 214.888C130.845 183.082 130.845 151.276 132.123 119.481C132.324 114.467 132.206 109.446 131.768 104.447C131.446 100.786 130.136 98.1334 125.658 101.312C98.5956 120.576 85.1183 152.404 91.959 185.402C95.4921 202.432 103.042 217.444 115.499 228.773C132.434 244.16 153.633 249.766 176.506 249.647C184.239 249.647 186.633 246.866 186.569 239.35C186.311 205.063 186.494 170.787 186.504 136.501C186.504 114.176 186.59 91.8517 186.504 69.5272C186.504 63.632 187.954 60.2603 194.859 61.9569C217.207 67.4441 236.741 77.57 252.645 94.6221C275.788 119.513 284.508 148.828 281.243 182.373C279.308 201.383 272.062 219.464 260.335 234.55C252.817 244.278 244.119 253.288 233.487 259.612C228.494 262.608 226.152 261.287 226.26 255.414C226.346 250.399 226.335 245.374 226.324 240.38C226.324 236.74 226.614 232.767 228.472 229.481C231.114 224.896 235.592 221.857 238.696 217.669C242.166 212.997 245.108 207.955 247.469 202.636C253.147 189.777 255.524 175.703 254.385 161.692C253.292 147.562 248.503 133.968 240.5 122.273C235.178 114.608 228.495 107.984 220.783 102.729C219.097 101.58 217.336 99.4005 215.21 100.582C213.083 101.763 213.985 104.437 213.985 106.466C213.95 138.108 213.942 169.738 213.964 201.358V201.348Z" fill="url(#paint0_linear_39_17)"/>
<defs>
<linearGradient id="paint0_linear_39_17" x1="0.0338257" y1="169.499" x2="345" y2="169.499" gradientUnits="userSpaceOnUse">
<stop offset="0.33" stop-color="#C7AD7E"/>
<stop offset="0.62" stop-color="#D2BA8A"/>
<stop offset="1" stop-color="#D1B989"/>
</linearGradient>
</defs>
</svg>
